<?xml version="1.0" standalone="no"?>
<!DOCTYPE svg PUBLIC "-//W3C//DTD SVG 20010904//EN"
 "http://www.w3.org/TR/2001/REC-SVG-20010904/DTD/svg10.dtd">
<svg version="1.0" xmlns="http://www.w3.org/2000/svg"
 width="602.000000pt" height="602.000000pt" viewBox="0 0 602.000000 602.000000"
 preserveAspectRatio="xMidYMid meet">
<metadata>
Created by potrace 1.11, written by Peter Selinger 2001-2013
</metadata>
<g transform="translate(0.000000,602.000000) scale(0.100000,-0.100000)"
fill="#000000" stroke="none">
<path d="M2898 6010 c-148 -25 -288 -116 -379 -247 -38 -55 -1946 -4318 -1970
-4403 -23 -80 -25 -222 -4 -305 41 -160 149 -296 289 -365 106 -53 206 -74
312 -66 188 14 345 101 441 244 21 32 351 751 732 1600 382 848 697 1542 700
1542 3 -1 317 -695 696 -1543 380 -848 707 -1567 728 -1599 160 -241 483 -321
742 -185 84 44 201 164 248 253 20 39 44 102 53 140 21 90 15 237 -13 314 -27
73 -1885 4226 -1931 4315 -49 95 -164 211 -252 253 -108 53 -263 73 -392 52z"/>
<path d="M2885 2330 c-121 -26 -244 -96 -320 -183 -54 -60 -118 -189 -134
-265 -7 -35 -11 -276 -11 -715 0 -737 0 -731 68 -861 69 -133 210 -245 361
-290 69 -20 236 -21 311 -1 96 25 180 75 255 150 78 78 122 153 154 262 21 72
22 83 19 760 l-3 688 -26 67 c-72 184 -188 300 -368 366 -73 27 -233 38 -306
22z"/>
</g>
</svg>
